<svg xmlns="http://www.w3.org/2000/svg" version="1.1" xmlns:xlink="http://www.w3.org/1999/xlink" viewBox="0 0 200 200"><rect width="200" height="200" fill="url('#gradient')"></rect><defs><linearGradient id="gradient" gradientTransform="rotate(45 0.5 0.5)"><stop offset="0%" stop-color="#cfb193"></stop><stop offset="100%" stop-color="#c1ae7d"></stop></linearGradient></defs><g><g fill="#ffffff" transform="matrix(6.576146788990826,0,0,6.576146788990826,41.737914835859875,134.9218364715576)" stroke="#ffffff" stroke-width="0.2"><path d="M8.41-3.78L8.41-3.78Q8.41-4.53 7.88-4.95Q7.34-5.37 6.01-5.82Q4.67-6.27 3.82-6.69L3.82-6.69Q1.05-8.05 1.05-10.42L1.05-10.42Q1.05-11.60 1.74-12.50Q2.43-13.41 3.69-13.91Q4.95-14.41 6.52-14.41L6.52-14.41Q8.06-14.41 9.27-13.87Q10.49-13.32 11.16-12.31Q11.84-11.30 11.84-10L11.84-10L8.42-10Q8.42-10.87 7.89-11.35Q7.35-11.83 6.45-11.83L6.45-11.83Q5.53-11.83 5.00-11.42Q4.46-11.02 4.46-10.39L4.46-10.39Q4.46-9.84 5.05-9.40Q5.63-8.96 7.11-8.48Q8.58-8.01 9.53-7.46L9.53-7.46Q11.84-6.13 11.84-3.80L11.84-3.80Q11.84-1.93 10.43-0.87Q9.02 0.20 6.57 0.20L6.57 0.20Q4.84 0.20 3.44-0.42Q2.04-1.04 1.33-2.12Q0.63-3.20 0.63-4.61L0.63-4.61L4.06-4.61Q4.06-3.47 4.65-2.92Q5.24-2.38 6.57-2.38L6.57-2.38Q7.42-2.38 7.92-2.75Q8.41-3.12 8.41-3.78ZM13.68-10.57L16.98-10.57L16.98 0.36Q16.97 2.24 15.91 3.25Q14.84 4.27 12.94 4.27L12.94 4.27Q12.12 4.27 11.39 4.10L11.39 4.10L11.39 1.61Q11.95 1.70 12.31 1.70L12.31 1.70Q13.68 1.70 13.68 0.34L13.68 0.34L13.68-10.57ZM13.44-13.29L13.44-13.29Q13.44-13.99 13.95-14.44Q14.45-14.89 15.26-14.89Q16.07-14.89 16.58-14.44Q17.09-13.99 17.09-13.29Q17.09-12.59 16.58-12.14Q16.07-11.69 15.26-11.69Q14.45-11.69 13.95-12.14Q13.44-12.59 13.44-13.29Z"></path></g></g></svg>